<mxfile host="app.diagrams.net" modified="2024-01-04T07:03:11.788Z" agent="Mozilla/5.0 (Windows NT 10.0; Win64; x64) AppleWebKit/537.36 (KHTML, like Gecko) Chrome/120.0.0.0 Safari/537.36" etag="ily_6cW9H5uSkonCLV3P" version="22.1.16" type="github">
  <diagram name="Page-1" id="K9fGEBtrKCqM021igNrJ">
    <mxGraphModel dx="1100" dy="585" grid="1" gridSize="10" guides="1" tooltips="1" connect="1" arrows="1" fold="1" page="1" pageScale="1" pageWidth="850" pageHeight="1100" math="0" shadow="0">
      <root>
        <mxCell id="0" />
        <mxCell id="1" parent="0" />
        <mxCell id="oIKKvcgH47oLoRihl83v-1" value="server.js" style="shape=cylinder3;whiteSpace=wrap;html=1;boundedLbl=1;backgroundOutline=1;size=15;" vertex="1" parent="1">
          <mxGeometry x="490" y="550" width="60" height="80" as="geometry" />
        </mxCell>
        <mxCell id="oIKKvcgH47oLoRihl83v-6" style="edgeStyle=none;rounded=0;orthogonalLoop=1;jettySize=auto;html=1;" edge="1" parent="1" source="oIKKvcgH47oLoRihl83v-4" target="oIKKvcgH47oLoRihl83v-1">
          <mxGeometry relative="1" as="geometry" />
        </mxCell>
        <mxCell id="oIKKvcgH47oLoRihl83v-4" value="app.js" style="shape=cylinder3;whiteSpace=wrap;html=1;boundedLbl=1;backgroundOutline=1;size=15;" vertex="1" parent="1">
          <mxGeometry x="300" y="550" width="60" height="80" as="geometry" />
        </mxCell>
        <mxCell id="oIKKvcgH47oLoRihl83v-20" style="edgeStyle=none;rounded=0;orthogonalLoop=1;jettySize=auto;html=1;exitX=0.5;exitY=1;exitDx=0;exitDy=0;" edge="1" parent="1" source="oIKKvcgH47oLoRihl83v-9" target="oIKKvcgH47oLoRihl83v-4">
          <mxGeometry relative="1" as="geometry">
            <Array as="points">
              <mxPoint x="330" y="390" />
            </Array>
          </mxGeometry>
        </mxCell>
        <mxCell id="oIKKvcgH47oLoRihl83v-9" value="error.js" style="ellipse;whiteSpace=wrap;html=1;aspect=fixed;" vertex="1" parent="1">
          <mxGeometry x="290" y="310" width="80" height="80" as="geometry" />
        </mxCell>
        <mxCell id="oIKKvcgH47oLoRihl83v-10" value="global&lt;br&gt;middleWares" style="ellipse;whiteSpace=wrap;html=1;aspect=fixed;" vertex="1" parent="1">
          <mxGeometry x="385" y="310" width="80" height="80" as="geometry" />
        </mxCell>
        <mxCell id="oIKKvcgH47oLoRihl83v-18" style="edgeStyle=orthogonalEdgeStyle;rounded=0;orthogonalLoop=1;jettySize=auto;html=1;" edge="1" parent="1" source="oIKKvcgH47oLoRihl83v-12" target="oIKKvcgH47oLoRihl83v-4">
          <mxGeometry relative="1" as="geometry">
            <mxPoint x="230" y="480" as="targetPoint" />
            <Array as="points">
              <mxPoint x="230" y="470" />
              <mxPoint x="330" y="470" />
            </Array>
          </mxGeometry>
        </mxCell>
        <mxCell id="oIKKvcgH47oLoRihl83v-12" value="global&lt;br&gt;router" style="ellipse;whiteSpace=wrap;html=1;aspect=fixed;" vertex="1" parent="1">
          <mxGeometry x="190" y="310" width="80" height="80" as="geometry" />
        </mxCell>
        <mxCell id="oIKKvcgH47oLoRihl83v-19" style="edgeStyle=orthogonalEdgeStyle;rounded=0;orthogonalLoop=1;jettySize=auto;html=1;exitX=0.5;exitY=1;exitDx=0;exitDy=0;entryX=0.5;entryY=0;entryDx=0;entryDy=0;entryPerimeter=0;" edge="1" parent="1" source="oIKKvcgH47oLoRihl83v-10" target="oIKKvcgH47oLoRihl83v-4">
          <mxGeometry relative="1" as="geometry" />
        </mxCell>
        <mxCell id="oIKKvcgH47oLoRihl83v-23" style="edgeStyle=none;rounded=0;orthogonalLoop=1;jettySize=auto;html=1;exitX=1;exitY=0.5;exitDx=0;exitDy=0;exitPerimeter=0;entryX=0;entryY=0.5;entryDx=0;entryDy=0;" edge="1" parent="1" source="oIKKvcgH47oLoRihl83v-21" target="oIKKvcgH47oLoRihl83v-22">
          <mxGeometry relative="1" as="geometry" />
        </mxCell>
        <mxCell id="oIKKvcgH47oLoRihl83v-21" value="model.js" style="shape=or;whiteSpace=wrap;html=1;" vertex="1" parent="1">
          <mxGeometry x="20" y="10" width="60" height="80" as="geometry" />
        </mxCell>
        <mxCell id="oIKKvcgH47oLoRihl83v-22" value="Database" style="rounded=1;whiteSpace=wrap;html=1;" vertex="1" parent="1">
          <mxGeometry x="170" y="20" width="120" height="60" as="geometry" />
        </mxCell>
        <mxCell id="oIKKvcgH47oLoRihl83v-27" style="edgeStyle=none;rounded=0;orthogonalLoop=1;jettySize=auto;html=1;exitX=0.5;exitY=1;exitDx=0;exitDy=0;entryX=0.5;entryY=0;entryDx=0;entryDy=0;" edge="1" parent="1" source="oIKKvcgH47oLoRihl83v-24" target="oIKKvcgH47oLoRihl83v-12">
          <mxGeometry relative="1" as="geometry" />
        </mxCell>
        <mxCell id="oIKKvcgH47oLoRihl83v-24" value="routes" style="ellipse;whiteSpace=wrap;html=1;aspect=fixed;" vertex="1" parent="1">
          <mxGeometry x="190" y="160" width="80" height="80" as="geometry" />
        </mxCell>
        <mxCell id="oIKKvcgH47oLoRihl83v-26" style="edgeStyle=none;rounded=0;orthogonalLoop=1;jettySize=auto;html=1;exitX=0.5;exitY=1;exitDx=0;exitDy=0;entryX=0.5;entryY=0;entryDx=0;entryDy=0;" edge="1" parent="1" source="oIKKvcgH47oLoRihl83v-22" target="oIKKvcgH47oLoRihl83v-24">
          <mxGeometry relative="1" as="geometry" />
        </mxCell>
      </root>
    </mxGraphModel>
  </diagram>
</mxfile>
